<?xml version="1.0" encoding="iso-8859-1"?>
<!-- Uploaded to: SVG Repo, www.svgrepo.com, Generator: SVG Repo Mixer Tools -->
<svg fill="#fff" version="1.1" id="Layer_1" xmlns="http://www.w3.org/2000/svg" xmlns:xlink="http://www.w3.org/1999/xlink"
	 viewBox="0 0 512 512" xml:space="preserve">
<g>
	<g>
		<path d="M433.869,96.26L216.017,10.623L215.972,0l-15.688,0.066l0.049,11.574L62.444,80.57H24.335v15.688h41.812l134.259-67.118
			l0.046,11.06h-15.971v71.86h15.688V82.986l24.321,24.321v4.753h15.688V40.201H216.14l-0.053-12.692l214.81,84.439h33.756V96.26
			H433.869z M224.491,55.888V85.12L200.17,60.799v-4.91H224.491z"/>
	</g>
</g>
<g>
	<g>
		<path d="M0.437,104.168v87.754h143.72v-87.754H0.437z M128.468,176.234H16.125v-56.378h112.343V176.234z"/>
	</g>
</g>
<g>
	<g>
		<path d="M476.879,120.314H151.934v15.688h37.364l-25.101,25.101h-12.263v15.688h358.185L476.879,120.314z M186.384,161.104
			l25.101-25.101h1.691l25.101,25.101H186.384z M235.364,136.002h41.956l-20.977,20.977L235.364,136.002z M274.406,161.104
			l25.101-25.101h1.691l25.101,25.101H274.406z M323.386,136.002h41.956l-20.977,20.977L323.386,136.002z M362.427,161.104
			l25.101-25.101h1.691l25.101,25.101H362.427z M411.407,136.002h41.956l-20.977,20.977L411.407,136.002z M470.74,140.812
			l11.942,20.291h-32.233L470.74,140.812z"/>
	</g>
</g>
<g>
	<g>
		<rect x="0.28" y="200.842" width="144.333" height="15.688"/>
	</g>
</g>
<g>
	<g>
		<path d="M224.491,184.078v29.074L200.17,188.83v-4.753h-15.688v224.055h15.688v-36.76l24.321-24.321v61.081h15.688V184.078
			H224.491z M224.491,324.865l-24.321,24.32V299.04l24.321,24.321V324.865z M224.491,301.173l-21.072-21.072l21.072-21.072V301.173z
			 M224.491,236.843l-24.321,24.321v-50.146l24.321,24.321V236.843z"/>
	</g>
</g>
<g>
	<g>
		<path d="M160.477,416.292V512h103.709v-95.708H160.477z M248.498,496.312h-72.333V431.98h72.333V496.312z"/>
	</g>
</g>
<g>
	<g>
		<rect x="400.858" y="296.029" width="15.688" height="56.478"/>
	</g>
</g>
<g>
	<g>
		<polygon points="423.865,304.391 423.865,320.079 496.032,320.079 496.032,328.446 423.865,328.446 423.865,344.135 
			511.72,344.135 511.72,304.391 		"/>
	</g>
</g>
<g>
	<g>
		<polygon points="392.489,320.079 392.489,304.391 304.634,304.391 304.634,344.135 392.489,344.135 392.489,328.446 
			320.322,328.446 320.322,320.079 		"/>
	</g>
</g>
<g>
	<g>
		<polygon points="384.122,184.113 384.122,199.802 400.856,199.802 400.856,287.656 416.544,287.656 416.544,199.802 
			432.233,199.802 432.233,184.113 		"/>
	</g>
</g>
</svg>